<?xml version="1.0" encoding="UTF-8"?>
<svg version="1.1" xmlns="http://www.w3.org/2000/svg" width="163" height="146">
<path d="M0 0 C1.41782145 0.06059066 2.83444466 0.14954123 4.25 0.25 C5.03890625 0.29640625 5.8278125 0.3428125 6.640625 0.390625 C10.77371239 1.45811115 12.51257154 4.21966729 14.703125 7.7265625 C15.21359375 8.68304688 15.7240625 9.63953125 16.25 10.625 C17.03117187 12.06746094 17.03117187 12.06746094 17.828125 13.5390625 C19 16 19 16 19 18 C23.22127511 14.16247718 26.12626109 9.94020638 29.15625 5.109375 C31 3 31 3 33.32421875 2.17578125 C36.38589612 1.97464916 39.25916896 2.1355222 42.3125 2.4375 C43.91544922 2.59025391 43.91544922 2.59025391 45.55078125 2.74609375 C46.35902344 2.82988281 47.16726562 2.91367187 48 3 C49.61435734 8.04253427 48.33221315 12.38163764 47.19921875 17.38671875 C47.00278275 18.28493851 46.80634674 19.18315826 46.60395813 20.1085968 C46.18749711 22.00160799 45.76609639 23.89353834 45.34008789 25.78442383 C44.68808353 28.68490415 44.05486044 31.5890339 43.42382812 34.49414062 C43.01673536 36.33357942 42.60856909 38.17278104 42.19921875 40.01171875 C42.00954025 40.88253586 41.81986176 41.75335297 41.62443542 42.65055847 C41.34954033 43.85740044 41.34954033 43.85740044 41.0690918 45.08862305 C40.91063278 45.7974614 40.75217377 46.50629974 40.58891296 47.23661804 C40 49 40 49 38 51 C34.7421875 51.1953125 34.7421875 51.1953125 30.875 51.125 C28.95300781 51.09792969 28.95300781 51.09792969 26.9921875 51.0703125 C26.00476562 51.04710937 25.01734375 51.02390625 24 51 C25.5 42 25.5 42 27 33 C22.545 37.95 22.545 37.95 18 43 C14.88742431 39.88742431 13.0659594 37.71872691 11 34 C8.09431448 40.57602513 5.56207775 47.28320157 3 54 C-2.61 54.66 -8.22 55.32 -14 56 C-15.57776439 52.84447122 -14.66118308 50.41611258 -14 47 C-13.26823627 45.06204359 -12.53549552 43.12443759 -11.79351807 41.19036865 C-10.48777232 37.58608456 -9.52807962 33.90062947 -8.5546875 30.1953125 C-8.2316716 28.9875264 -8.2316716 28.9875264 -7.90213013 27.75534058 C-7.22263711 25.21288387 -6.54842996 22.66906874 -5.875 20.125 C-5.19377052 17.55969266 -4.51137495 14.9947117 -3.82644653 12.4303894 C-3.40232504 10.84174991 -2.98043212 9.25251341 -2.56100464 7.66262817 C-1.11188252 2.22376503 -1.11188252 2.22376503 0 0 Z " fill="#DB0214" transform="translate(18,51)"/>
<path d="M0 0 C4.62 0 9.24 0 14 0 C14 0.99 14 1.98 14 3 C14.99 2.67 15.98 2.34 17 2 C21.0306179 12.26446746 24.98926231 22.55475606 28.875 32.875 C29.2680835 33.91462891 29.66116699 34.95425781 30.06616211 36.02539062 C30.43362549 37.00443359 30.80108887 37.98347656 31.1796875 38.9921875 C31.50694824 39.86214355 31.83420898 40.73209961 32.17138672 41.62841797 C32.9093028 43.74041466 33.50110472 45.82088091 34 48 C30.78658631 49.60670684 27.37041032 48.82510855 23.875 48.5625 C23.12089844 48.51029297 22.36679688 48.45808594 21.58984375 48.40429688 C19.7262063 48.27454996 17.86305004 48.13792512 16 48 C15.01 45.69 14.02 43.38 13 41 C8.38 41 3.76 41 -1 41 C-1.99 42.98 -2.98 44.96 -4 47 C-9.94 47 -15.88 47 -22 47 C-20.57162073 42.71486218 -19.15343852 39.01772796 -17.20703125 35 C-16.66199951 33.87118408 -16.11696777 32.74236816 -15.55541992 31.5793457 C-14.98025635 30.39816162 -14.40509277 29.21697754 -13.8125 28 C-13.22284442 26.78290217 -12.6334081 25.56569809 -12.04418945 24.34838867 C-8.09424804 16.19913309 -4.08795127 8.0808339 0 0 Z M11 7 C12 9 12 9 12 9 Z M10 9 C11 11 11 11 11 11 Z M6 18 C5.67 19.65 5.34 21.3 5 23 C3.35 23 1.7 23 0 23 C0.66 25.64 1.32 28.28 2 31 C4.64 31 7.28 31 10 31 C10.309375 30.05125 10.61875 29.1025 10.9375 28.125 C12 25 12 25 13 23 C12.401875 22.9175 11.80375 22.835 11.1875 22.75 C8.4033704 21.79544128 7.56688858 20.42867729 6 18 Z " fill="#17376E" transform="translate(82,54)"/>
<path d="M0 0 C1.9133098 1.90399929 3.40397937 3.80547164 5 6 C3.94434467 9.28426103 2.38339648 10.57151556 -0.5 12.25 C-4 14 -4 14 -6 14 C-6.7734375 13.0409375 -6.7734375 13.0409375 -7.5625 12.0625 C-11.09205932 9.07594981 -14.44025701 8.67543496 -19 9 C-22.75822269 10.73991791 -24.52839625 12.34583996 -26.9375 15.6875 C-28.34299649 20.06934201 -28.3476152 23.59183703 -27 28 C-24.43464804 31.24044458 -22.913195 32.69560167 -19 34 C-13.22207839 34.54508694 -10.59698044 33.44773533 -6 30 C-3 29 -3 29 -0.73828125 29.99609375 C0.46248047 30.70958984 0.46248047 30.70958984 1.6875 31.4375 C2.49574219 31.91058594 3.30398437 32.38367188 4.13671875 32.87109375 C4.75160156 33.24363281 5.36648437 33.61617187 6 34 C3.08193713 39.61997294 0.50730043 43.09603691 -5.1875 46.1875 C-12.79769056 48.38599949 -19.84547275 48.82548192 -27 45 C-29.68289486 42.31710514 -30.80585593 40.58243222 -32 37 C-32.33 37.66 -32.66 38.32 -33 39 C-37.15531479 37.25772965 -38.35216446 35.33641227 -40.171875 31.3359375 C-42.93806785 23.53318598 -42.25836822 16.53101448 -39 9 C-35.68303787 2.56634515 -30.70177673 -1.09847661 -24.05859375 -3.78515625 C-15.85059527 -6.28901033 -7.00208106 -4.98374284 0 0 Z " fill="#14AA3D" transform="translate(153,57)"/>
<path d="M0 0 C0.70640625 0.05220703 1.4128125 0.10441406 2.140625 0.15820312 C3.88579987 0.28791207 5.63045725 0.42454954 7.375 0.5625 C8.98935734 5.60503427 7.70721315 9.94413764 6.57421875 14.94921875 C6.37778275 15.84743851 6.18134674 16.74565826 5.97895813 17.6710968 C5.56249711 19.56410799 5.14109639 21.45603834 4.71508789 23.34692383 C4.06308353 26.24740415 3.42986044 29.1515339 2.79882812 32.05664062 C2.39173536 33.89607942 1.98356909 35.73528104 1.57421875 37.57421875 C1.38454025 38.44503586 1.19486176 39.31585297 0.99943542 40.21305847 C0.81617203 41.01761978 0.63290863 41.82218109 0.4440918 42.65112305 C0.28563278 43.3599614 0.12717377 44.06879974 -0.03608704 44.79911804 C-0.625 46.5625 -0.625 46.5625 -2.625 48.5625 C-5.8828125 48.7578125 -5.8828125 48.7578125 -9.75 48.6875 C-11.67199219 48.66042969 -11.67199219 48.66042969 -13.6328125 48.6328125 C-14.62023438 48.60960937 -15.60765625 48.58640625 -16.625 48.5625 C-16.49222656 47.80066406 -16.35945313 47.03882813 -16.22265625 46.25390625 C-15.38225734 41.34033308 -14.57572802 36.46620328 -14.125 31.5 C-13.625 27.5625 -13.625 27.5625 -11.625 24.5625 C-12.285 24.5625 -12.945 24.5625 -13.625 24.5625 C-13.955 23.9025 -14.285 23.2425 -14.625 22.5625 C-15.945 22.5625 -17.265 22.5625 -18.625 22.5625 C-18.625 20.9125 -18.625 19.2625 -18.625 17.5625 C-19.615 17.5625 -20.605 17.5625 -21.625 17.5625 C-21.625 16.9025 -21.625 16.2425 -21.625 15.5625 C-20.4865715 14.45856934 -19.34581886 13.35696246 -18.1953125 12.265625 C-15.4935109 9.33531281 -13.38362179 5.98118809 -11.17578125 2.671875 C-8.13503277 -1.46415567 -4.64545258 -0.37283614 0 0 Z " fill="#DE031A" transform="translate(58.625,53.4375)"/>
<path d="M0 0 C0.598125 0.33 1.19625 0.66 1.8125 1 C4.05386471 2.20787988 4.05386471 2.20787988 7 2 C7 3.32 7 4.64 7 6 C7.66 6 8.32 6 9 6 C10.125 12.75 10.125 12.75 9 15 C9.66 15.33 10.32 15.66 11 16 C10.34 16.99 9.68 17.98 9 19 C8.01 19 7.02 19 6 19 C6.01160156 19.63808594 6.02320312 20.27617188 6.03515625 20.93359375 C6.04417969 21.75988281 6.05320312 22.58617188 6.0625 23.4375 C6.07410156 24.26121094 6.08570312 25.08492187 6.09765625 25.93359375 C6 28 6 28 5 29 C3.65732587 29.08631874 2.31025678 29.10706473 0.96484375 29.09765625 C0.15595703 29.09443359 -0.65292969 29.09121094 -1.48632812 29.08789062 C-2.33646484 29.07951172 -3.18660156 29.07113281 -4.0625 29.0625 C-4.91650391 29.05798828 -5.77050781 29.05347656 -6.65039062 29.04882812 C-8.76695663 29.03700373 -10.88348685 29.01906769 -13 29 C-11.72451525 24.96530333 -10.2387032 21.19173454 -8.3984375 17.3828125 C-7.90859375 16.36445312 -7.41875 15.34609375 -6.9140625 14.296875 C-6.40617187 13.25015625 -5.89828125 12.2034375 -5.375 11.125 C-4.859375 10.05507812 -4.34375 8.98515625 -3.8125 7.8828125 C-2.54486479 5.25364318 -1.2739434 2.62611698 0 0 Z " fill="#092553" transform="translate(73,72)"/>
<path d="M0 0 C4.62 0 9.24 0 14 0 C9.06024096 15.80722892 9.06024096 15.80722892 4.99609375 18.16015625 C4.00802734 18.57587891 4.00802734 18.57587891 3 19 C2.34 19.33 1.68 19.66 1 20 C1 20.66 1 21.32 1 22 C0.34 22 -0.32 22 -1 22 C-1.33 22.66 -1.66 23.32 -2 24 C-2 22.68 -2 21.36 -2 20 C-3.32 20.33 -4.64 20.66 -6 21 C-7.2421875 19.01953125 -7.2421875 19.01953125 -8 16 C-7.09086782 13.02748687 -5.62373864 10.4012355 -4.125 7.6875 C-3.73441406 6.94693359 -3.34382813 6.20636719 -2.94140625 5.44335938 C-1.97696764 3.62033516 -0.99056955 1.80895856 0 0 Z " fill="#123266" transform="translate(82,54)"/>
<path d="M0 0 C0.33 0.66 0.66 1.32 1 2 C2.32 1.67 3.64 1.34 5 1 C4.67 2.98 4.34 4.96 4 7 C5.65 6.67 7.3 6.34 9 6 C9 6.99 9 7.98 9 9 C9.66 9 10.32 9 11 9 C9.69891569 13.87549176 7.82914252 16.7234779 4.375 20.375 C3.55773438 21.24898437 2.74046875 22.12296875 1.8984375 23.0234375 C1.27195312 23.67570312 0.64546875 24.32796875 0 25 C-2.33524782 22.74259377 -4.18705073 20.7194239 -6 18 C-6 16.68 -6 15.36 -6 14 C-6.66 13.67 -7.32 13.34 -8 13 C-3.375 8.125 -3.375 8.125 0 7 C0 4.69 0 2.38 0 0 Z " fill="#AE1625" transform="translate(36,69)"/>
<path d="M0 0 C5.625 -0.25 5.625 -0.25 9 2 C9.66 1.34 10.32 0.68 11 0 C12.32 0 13.64 0 15 0 C14.67 0.99 14.34 1.98 14 3 C14.99 3.66 15.98 4.32 17 5 C16.125 10.875 16.125 10.875 15 12 C13.33388095 12.042721 11.66617115 12.04063832 10 12 C9.34 12 8.68 12 8 12 C5 12 2 12 -1 12 C-0.21616433 8.13857796 1.42810432 5.98671756 4 3 C2.68 3.33 1.36 3.66 0 4 C0 2.68 0 1.36 0 0 Z M7 5 C6.67 5.99 6.34 6.98 6 8 C6.66 8 7.32 8 8 8 C7.67 7.01 7.34 6.02 7 5 Z " fill="#8590A5" transform="translate(131,73)"/>
<path d="M0 0 C1.43836751 0.11458693 2.87570966 0.24209116 4.3125 0.375 C5.51326172 0.47941406 5.51326172 0.47941406 6.73828125 0.5859375 C9 1 9 1 12 3 C11.67 3.66 11.34 4.32 11 5 C10.34 4.67 9.68 4.34 9 4 C6.6670134 3.95977609 4.33293334 3.95679753 2 4 C2.061875 5.546875 2.061875 5.546875 2.125 7.125 C2.00333028 10.89676125 1.47895609 13.54910245 0 17 C-0.66 17.33 -1.32 17.66 -2 18 C-2.33 18.99 -2.66 19.98 -3 21 C-3.66 21 -4.32 21 -5 21 C-4.9175 22.216875 -4.835 23.43375 -4.75 24.6875 C-4.72528316 28.16639526 -4.95888443 28.93832664 -7 32 C-7.66 32.66 -8.32 33.32 -9 34 C-7.629793 26.29447373 -5.61501526 18.86903481 -3.375 11.375 C-3.05015625 10.27542969 -2.7253125 9.17585938 -2.390625 8.04296875 C-1.597636 5.36080009 -0.80069834 2.67987525 0 0 Z " fill="#CC3843" transform="translate(18,51)"/>
<path d="M0 0 C3.125 0.375 3.125 0.375 6 1 C6.6875 2.8125 6.6875 2.8125 7 5 C6.5565625 5.4021875 6.113125 5.804375 5.65625 6.21875 C3.29876754 8.75415567 2.76151469 11.3823109 1.8125 14.6875 C1.46832031 15.86699219 1.12414062 17.04648438 0.76953125 18.26171875 C0.51558594 19.16535156 0.26164062 20.06898437 0 21 C-0.33 21 -0.66 21 -1 21 C-1 19.35 -1 17.7 -1 16 C-1.66 16 -2.32 16 -3 16 C-4.08289974 10.69379126 -3.89524046 7.08722439 -2 2 C-1.34 1.34 -0.68 0.68 0 0 Z " fill="#E31426" transform="translate(23,80)"/>
<path d="M0 0 C4.05281712 1.22527029 7.44360764 2.69880494 11 5 C7 12.71428571 7 12.71428571 3 14 C3 11.69 3 9.38 3 7 C3.99 7.33 4.98 7.66 6 8 C6.33 6.68 6.66 5.36 7 4 C-4.23878086 6.21184494 -4.23878086 6.21184494 -15 10 C-15.33 10.66 -15.66 11.32 -16 12 C-16.99 11.67 -17.98 11.34 -19 11 C-18.67 10.38125 -18.34 9.7625 -18 9.125 C-16.85806765 7.08981656 -16.85806765 7.08981656 -17 5 C-16.02160156 5.06960937 -16.02160156 5.06960937 -15.0234375 5.140625 C-8.90899792 5.39313873 -5.70171033 4.97837028 -1 1 C-0.67 0.67 -0.34 0.34 0 0 Z " fill="#42B35F" transform="translate(148,86)"/>
<path d="M0 0 C1.64826111 2.96687001 2.44271087 5.65626525 3 9 C3.99 9.33 4.98 9.66 6 10 C5.49287967 13.71888239 4.88391785 16.73454239 3 20 C0 19 0 19 -0.94921875 17.1796875 C-2.49751799 12.34637242 -3.61620748 8.13506237 -3 3 C-1.5 1.0625 -1.5 1.0625 0 0 Z " fill="#09A933" transform="translate(117,73)"/>
<path d="M0 0 C2.94956528 1.36944102 5.52468811 2.87830409 8 5 C8 5.66 8 6.32 8 7 C7.01 7 6.02 7 5 7 C4.67 7.99 4.34 8.98 4 10 C3.13375 10.12375 2.2675 10.2475 1.375 10.375 C-1.89513853 10.98058121 -4.87256899 11.88306035 -8 13 C-8 11.02 -8 9.04 -8 7 C-6.20963542 6.05598958 -4.41927083 5.11197917 -2.62890625 4.16796875 C-0.67732013 3.00980201 -0.67732013 3.00980201 0 0 Z " fill="#14A13B" transform="translate(122,59)"/>
<path d="M0 0 C3.2578125 -0.29296875 3.2578125 -0.29296875 7.125 -0.1875 C9.04699219 -0.14689453 9.04699219 -0.14689453 11.0078125 -0.10546875 C11.99523437 -0.07066406 12.98265625 -0.03585938 14 0 C13.01 2.97 12.02 5.94 11 9 C10.67 8.34 10.34 7.68 10 7 C9.01 7 8.02 7 7 7 C7 6.34 7 5.68 7 5 C4.05926718 5.63015703 1.66561175 6.62420038 -1 8 C-1.99 8.33 -2.98 8.66 -4 9 C-2.94124926 5.59687262 -1.99097846 2.98646769 0 0 Z " fill="#254377" transform="translate(82,54)"/>
<path d="M0 0 C0.70640625 0.05220703 1.4128125 0.10441406 2.140625 0.15820312 C3.88579987 0.28791207 5.63045725 0.42454954 7.375 0.5625 C8.4921875 5.2734375 8.4921875 5.2734375 7.4375 7.875 C6.9115625 8.7103125 6.9115625 8.7103125 6.375 9.5625 C6.375 7.2525 6.375 4.9425 6.375 2.5625 C2.745 2.5625 -0.885 2.5625 -4.625 2.5625 C-4.625 3.8825 -4.625 5.2025 -4.625 6.5625 C-7.63531744 7.49673645 -8.49150268 7.60699911 -11.625 6.5625 C-11.625 7.5525 -11.625 8.5425 -11.625 9.5625 C-12.945 9.8925 -14.265 10.2225 -15.625 10.5625 C-12.56625053 1.64114739 -9.01800289 -0.72376961 0 0 Z " fill="#DB4A5B" transform="translate(58.625,53.4375)"/>
<path d="M0 0 C0.66 1.98 1.32 3.96 2 6 C1.34 6.66 0.68 7.32 0 8 C0.66 8.66 1.32 9.32 2 10 C1.67 10.33 1.34 10.66 1 11 C-5.72 10.28 -5.72 10.28 -7 9 C-7.07179964 7.48071962 -7.08392007 5.95832518 -7.0625 4.4375 C-7.05347656 3.61121094 -7.04445313 2.78492187 -7.03515625 1.93359375 C-7.02355469 1.29550781 -7.01195313 0.65742187 -7 0 C-4.3333581 -1.33332095 -2.83319697 -0.67102033 0 0 Z " fill="#1F903E" transform="translate(130,89)"/>
<path d="M0 0 C0.66 0.33 1.32 0.66 2 1 C2 2.98 2 4.96 2 7 C2.94875 6.814375 3.8975 6.62875 4.875 6.4375 C8 6 8 6 10 7 C10 5.35 10 3.7 10 2 C10.33 2 10.66 2 11 2 C11.1875 5.375 11.1875 5.375 11 9 C10.01 9.66 9.02 10.32 8 11 C8 10.34 8 9.68 8 9 C5.9600281 10.36323743 5.9600281 10.36323743 4 12 C4 12.66 4 13.32 4 14 C4.66 14.33 5.32 14.66 6 15 C0.25 15.125 0.25 15.125 -2 14 C-2 15.65 -2 17.3 -2 19 C-4 16 -4 16 -3.625 13.8125 C-3.41875 13.214375 -3.2125 12.61625 -3 12 C-2.01 12.33 -1.02 12.66 0 13 C0 11.68 0 10.36 0 9 C0 6 0 3 0 0 Z " fill="#3B5078" transform="translate(82,78)"/>
<path d="M0 0 C1.32 0 2.64 0 4 0 C3.67 0.99 3.34 1.98 3 3 C3.99 3.66 4.98 4.32 6 5 C5.125 10.875 5.125 10.875 4 12 C1.5625 12.25 1.5625 12.25 -1 12 C-3 9 -3 9 -2.75 5.4375 C-2 2 -2 2 0 0 Z " fill="#737B96" transform="translate(142,73)"/>
<path d="M0 0 C0.33 0.66 0.66 1.32 1 2 C2.32 1.67 3.64 1.34 5 1 C4.67 2.98 4.34 4.96 4 7 C4.99 7.33 5.98 7.66 7 8 C4.36 8.99 1.72 9.98 -1 11 C-1 12.98 -1 14.96 -1 17 C-1.66 17.33 -2.32 17.66 -3 18 C-3.99 17.34 -4.98 16.68 -6 16 C-6 15.34 -6 14.68 -6 14 C-6.66 13.67 -7.32 13.34 -8 13 C-3.375 8.125 -3.375 8.125 0 7 C0 4.69 0 2.38 0 0 Z " fill="#BE0316" transform="translate(36,69)"/>
<path d="M0 0 C2.14082246 2.14082246 2.59262865 3.30767976 3.5078125 6.1328125 C3.77207031 6.93847656 4.03632812 7.74414062 4.30859375 8.57421875 C4.57800781 9.41597656 4.84742187 10.25773437 5.125 11.125 C5.54072266 12.39923828 5.54072266 12.39923828 5.96484375 13.69921875 C6.6486468 15.79778673 7.32678277 17.89801696 8 20 C4.80064319 21.59967841 1.42133602 20.90845572 -2.0625 20.6875 C-2.80822266 20.65205078 -3.55394531 20.61660156 -4.32226562 20.58007812 C-6.22118283 20.46452186 -8.11281248 20.2403395 -10 20 C-10.33 19.34 -10.66 18.68 -11 18 C-6.05 18 -1.1 18 4 18 C3.67 14.7 3.34 11.4 3 8 C2.34 8 1.68 8 1 8 C0.67 5.36 0.34 2.72 0 0 Z " fill="#5F7694" transform="translate(108,82)"/>
<path d="M0 0 C0.33 0 0.66 0 1 0 C1.02689216 1.47906892 1.04634621 2.95827483 1.0625 4.4375 C1.07410156 5.26121094 1.08570313 6.08492188 1.09765625 6.93359375 C1 9 1 9 0 10 C-0.39148761 11.51165654 -0.73972457 13.03469632 -1.0625 14.5625 C-1.371875 16.026875 -1.68125 17.49125 -2 19 C2.62 18.67 7.24 18.34 12 18 C12.33 17.01 12.66 16.02 13 15 C13.33 15.66 13.66 16.32 14 17 C13.67 17.66 13.34 18.32 13 19 C10.12817413 19.47618812 7.32879853 19.84167597 4.4375 20.125 C3.22803711 20.25455078 3.22803711 20.25455078 1.99414062 20.38671875 C-0.00304064 20.59943628 -2.00142737 20.80077855 -4 21 C-5.57776439 17.84447122 -4.66118308 15.41611258 -4 12 C-3.30669286 9.93163371 -2.54158639 7.91459458 -1.71875 5.89453125 C-0.98149584 3.95122544 -0.466653 2.02365869 0 0 Z " fill="#DF6F77" transform="translate(8,86)"/>
<path d="M0 0 C0.66 0.33 1.32 0.66 2 1 C1.17812739 5.38332057 0.09845718 9.67940177 -1 14 C-6.53846154 14.36923077 -6.53846154 14.36923077 -8.875 12.5 C-9.24625 12.005 -9.6175 11.51 -10 11 C-7.82575883 8.49962266 -6.26954202 7.56371414 -3 7 C-2.814375 5.5459375 -2.814375 5.5459375 -2.625 4.0625 C-2.41875 3.051875 -2.2125 2.04125 -2 1 C-1.34 0.67 -0.68 0.34 0 0 Z " fill="#0D295C" transform="translate(95,79)"/>
<path d="M0 0 C0.66 0 1.32 0 2 0 C1.33015012 7.86013724 -0.30233416 15.38066256 -2.0625 23.0625 C-2.48499023 24.93325195 -2.48499023 24.93325195 -2.91601562 26.84179688 C-3.60632682 29.89554639 -4.30108982 32.9482092 -5 36 C-5.33 36 -5.66 36 -6 36 C-6.05472088 34.60461746 -6.09311538 33.20859103 -6.125 31.8125 C-6.14820313 31.03519531 -6.17140625 30.25789063 -6.1953125 29.45703125 C-5.97114732 26.63703328 -5.05241844 24.61935256 -4 22 C-3.61084962 19.73806341 -3.28128012 17.46536668 -3 15.1875 C-2.31100454 9.98722475 -1.41333374 5.04762052 0 0 Z " fill="#E66E7A" transform="translate(63,64)"/>
<path d="M0 0 C0.66 0 1.32 0 2 0 C3.1577506 3.47325181 3.06866652 6.36067448 3 10 C0.03 10 -2.94 10 -6 10 C-4.20893495 6.41786991 -2.35198072 3.23397349 0 0 Z " fill="#0A2D63" transform="translate(109,90)"/>
<path d="M0 0 C0.33 0 0.66 0 1 0 C1.22278115 3.89867006 0.45269257 6.41669166 -1 10 C-0.67 10.66 -0.34 11.32 0 12 C2.58605332 12.4683265 2.58605332 12.4683265 5.5625 12.625 C6.57441406 12.69976562 7.58632812 12.77453125 8.62890625 12.8515625 C9.80259766 12.92503906 9.80259766 12.92503906 11 13 C11.33 12.01 11.66 11.02 12 10 C12 11.32 12 12.64 12 14 C6.06 14 0.12 14 -6 14 C-4.7290827 10.1872481 -3.66918099 7.09374991 -1.875 3.625 C-1.34519531 2.59246094 -1.34519531 2.59246094 -0.8046875 1.5390625 C-0.53914063 1.03117187 -0.27359375 0.52328125 0 0 Z " fill="#4E5C75" transform="translate(66,87)"/>
<path d="M0 0 C0.33 0.66 0.66 1.32 1 2 C-1.475 1.505 -1.475 1.505 -4 1 C-4 0.34 -4 -0.32 -4 -1 C-4.99 -0.67 -5.98 -0.34 -7 0 C-7.33 -0.33 -7.66 -0.66 -8 -1 C-9.34015221 -1.15582303 -10.68758903 -1.25044142 -12.03515625 -1.31640625 C-12.84404297 -1.35830078 -13.65292969 -1.40019531 -14.48632812 -1.44335938 C-15.33646484 -1.48267578 -16.18660156 -1.52199219 -17.0625 -1.5625 C-17.91650391 -1.60568359 -18.77050781 -1.64886719 -19.65039062 -1.69335938 C-21.76672037 -1.79976702 -23.88333813 -1.90041731 -26 -2 C-18.11925142 -7.25383239 -7.5233348 -5.20544053 0 0 Z " fill="#55BE72" transform="translate(153,57)"/>
<path d="M0 0 C0 1.65 0 3.3 0 5 C-0.99 4.67 -1.98 4.34 -3 4 C-3 5.65 -3 7.3 -3 9 C-3.99 9.33 -4.98 9.66 -6 10 C-6.66 9.67 -7.32 9.34 -8 9 C-7.814375 8.236875 -7.62875 7.47375 -7.4375 6.6875 C-6.77180827 3.91032625 -6.77180827 3.91032625 -8 1 C-5.07175348 0.02391783 -3.04386724 -0.08226668 0 0 Z " fill="#09A735" transform="translate(155,90)"/>
<path d="M0 0 C1.32 0.33 2.64 0.66 4 1 C4.20086443 4.71599191 4.1519437 5.77208445 2 9 C-2.64636861 10.21690606 -7.23295736 10.08219039 -12 10 C-11.67 9.34 -11.34 8.68 -11 8 C-9.00390625 7.62109375 -9.00390625 7.62109375 -6.5625 7.4375 C-3.15371795 7.1938825 -3.15371795 7.1938825 0 6 C0 4.02 0 2.04 0 0 Z " fill="#CD0D1E" transform="translate(18,95)"/>
<path d="M0 0 C0 0.66 0 1.32 0 2 C-0.99 2 -1.98 2 -3 2 C-3.33 2.99 -3.66 3.98 -4 5 C-4.86625 5.12375 -5.7325 5.2475 -6.625 5.375 C-9.89513853 5.98058121 -12.87256899 6.88306035 -16 8 C-14.59241902 3.77725706 -12.16792713 3.03568317 -8.3671875 1.0078125 C-5.45798289 -0.23075976 -3.12603337 -0.40077351 0 0 Z " fill="#038D26" transform="translate(130,64)"/>
<path d="M0 0 C0.66 0 1.32 0 2 0 C1.95875 1.175625 1.9175 2.35125 1.875 3.5625 C1.86016365 7.72409674 2.68829222 11.06487667 4 15 C2.68 15.33 1.36 15.66 0 16 C0 18.64 0 21.28 0 24 C-0.33 24 -0.66 24 -1 24 C-2.125 16.25 -2.125 16.25 -1 14 C-0.76970044 11.62876754 -0.58880058 9.25258057 -0.4375 6.875 C-0.35371094 5.59367187 -0.26992187 4.31234375 -0.18359375 2.9921875 C-0.09271484 1.51105469 -0.09271484 1.51105469 0 0 Z " fill="#5DBC75" transform="translate(123,73)"/>
<path d="M0 0 C1.98 0.99 3.96 1.98 6 3 C2 10.71428571 2 10.71428571 -2 12 C-2 9.69 -2 7.38 -2 5 C-1.01 5.33 -0.02 5.66 1 6 C1.33 4.68 1.66 3.36 2 2 C1.34 2 0.68 2 0 2 C0 1.34 0 0.68 0 0 Z " fill="#64C87F" transform="translate(153,88)"/>
<path d="M0 0 C0.66 0.33 1.32 0.66 2 1 C1.855625 1.66 1.71125 2.32 1.5625 3 C1.10730833 5.42768893 0.84386539 7.73531432 0.625 10.1875 C0.41875 11.445625 0.2125 12.70375 0 14 C-0.99 14.66 -1.98 15.32 -3 16 C-2.88628503 13.70774565 -2.75869036 11.41617612 -2.625 9.125 C-2.55539063 7.84882812 -2.48578125 6.57265625 -2.4140625 5.2578125 C-2 2 -2 2 0 0 Z " fill="#DD505A" transform="translate(47,79)"/>
<path d="M0 0 C0.66 0.33 1.32 0.66 2 1 C1.34 3.31 0.68 5.62 0 8 C-0.66 8 -1.32 8 -2 8 C-2.33 8.99 -2.66 9.98 -3 11 C-4.98 11.33 -6.96 11.66 -9 12 C-9 11.34 -9 10.68 -9 10 C-8.34 10 -7.68 10 -7 10 C-6.67 8.68 -6.34 7.36 -6 6 C-5.34 6 -4.68 6 -4 6 C-3.67 5.34 -3.34 4.68 -3 4 C-2.34 4.33 -1.68 4.66 -1 5 C-0.67 3.35 -0.34 1.7 0 0 Z " fill="#7286AA" transform="translate(90,66)"/>
<path d="M0 0 C1.32 0 2.64 0 4 0 C4 2.31 4 4.62 4 7 C4.66 7.33 5.32 7.66 6 8 C6 8.66 6 9.32 6 10 C3.69 10 1.38 10 -1 10 C-0.40072174 6.64404172 0.84622436 4.62198774 3 2 C2.01 2 1.02 2 0 2 C0 1.34 0 0.68 0 0 Z " fill="#313F5D" transform="translate(132,74)"/>
<path d="M0 0 C4.62 0 9.24 0 14 0 C13.67 0.99 13.34 1.98 13 3 C9.04 2.67 5.08 2.34 1 2 C1 2.66 1 3.32 1 4 C0.01 4.33 -0.98 4.66 -2 5 C-1.34 3.35 -0.68 1.7 0 0 Z " fill="#667B9B" transform="translate(82,54)"/>
<path d="M0 0 C0.66 0 1.32 0 2 0 C2.66 1.98 3.32 3.96 4 6 C1.525 5.01 1.525 5.01 -1 4 C-1.33 6.31 -1.66 8.62 -2 11 C-3.32 10.67 -4.64 10.34 -6 10 C-4.94532786 7.89065572 -3.78173061 5.8937854 -2.5625 3.875 C-2.13066406 3.15054688 -1.69882813 2.42609375 -1.25390625 1.6796875 C-0.63322266 0.84824219 -0.63322266 0.84824219 0 0 Z " fill="#546E9A" transform="translate(97,56)"/>
<path d="M0 0 C0.33 0 0.66 0 1 0 C1 1.65 1 3.3 1 5 C5.29 5 9.58 5 14 5 C13.67 5.66 13.34 6.32 13 7 C8.38 7 3.76 7 -1 7 C-0.67 4.69 -0.34 2.38 0 0 Z " fill="#E18189" transform="translate(43,95)"/>
<path d="M0 0 C0.99 0.33 1.98 0.66 3 1 C2.34 2.32 1.68 3.64 1 5 C1.66 5.66 2.32 6.32 3 7 C2 8 2 8 -0.5625 8.0625 C-1.366875 8.041875 -2.17125 8.02125 -3 8 C-3.1875 5.125 -3.1875 5.125 -3 2 C-2.01 1.34 -1.02 0.68 0 0 Z " fill="#049930" transform="translate(129,92)"/>
<path d="M0 0 C1.65 0 3.3 0 5 0 C5 0.66 5 1.32 5 2 C7.97 2.495 7.97 2.495 11 3 C11 3.66 11 4.32 11 5 C12.65 5 14.3 5 16 5 C14.625 6.5 14.625 6.5 13 8 C12.34 8 11.68 8 11 8 C10.443125 7.360625 9.88625 6.72125 9.3125 6.0625 C6.30579108 3.38084069 3.94340119 3.30333855 0 3 C0 2.01 0 1.02 0 0 Z " fill="#61C27F" transform="translate(136,63)"/>
<path d="M0 0 C0.33 0 0.66 0 1 0 C1 2.64 1 5.28 1 8 C0.34 8 -0.32 8 -1 8 C-0.87625 9.8253125 -0.87625 9.8253125 -0.75 11.6875 C-0.72528316 15.16639526 -0.95888443 15.93832664 -3 19 C-3.66 19.66 -4.32 20.32 -5 21 C-3.68882339 13.88879511 -1.98279484 6.95300057 0 0 Z " fill="#D76A70" transform="translate(14,64)"/>
<path d="M0 0 C1.18771723 3.42943519 0.80226223 5.37784675 -0.4375 8.75 C-0.72496094 9.54921875 -1.01242188 10.3484375 -1.30859375 11.171875 C-1.53675781 11.77515625 -1.76492187 12.3784375 -2 13 C-2.33 13 -2.66 13 -3 13 C-3 11.35 -3 9.7 -3 8 C-3.66 8 -4.32 8 -5 8 C-4.45773019 4.20411134 -2.79872437 2.52788007 0 0 Z " fill="#E4515D" transform="translate(25,88)"/>
<path d="M0 0 C0 0.66 0 1.32 0 2 C-0.598125 2.226875 -1.19625 2.45375 -1.8125 2.6875 C-4.5551169 4.33307014 -5.41968093 6.27035797 -7 9 C-7.66 9 -8.32 9 -9 9 C-9.33 9.99 -9.66 10.98 -10 12 C-10.8125 10.3125 -10.8125 10.3125 -11 8 C-4.17073171 0 -4.17073171 0 0 0 Z " fill="#4DB76B" transform="translate(127,55)"/>
<path d="M0 0 C0.66 0.33 1.32 0.66 2 1 C1.67 1.99 1.34 2.98 1 4 C1.66 4 2.32 4 3 4 C3 4.66 3 5.32 3 6 C4.32 6.33 5.64 6.66 7 7 C7 7.66 7 8.32 7 9 C5.35 9.33 3.7 9.66 2 10 C2.33 9.34 2.66 8.68 3 8 C1.68 7.34 0.36 6.68 -1 6 C-1.042721 4.33388095 -1.04063832 2.66617115 -1 1 C-0.67 0.67 -0.34 0.34 0 0 Z " fill="#3E5883" transform="translate(91,70)"/>
<path d="M0 0 C2.94720751 3.45534674 5.36766537 6.73779291 7 11 C6.1875 13.375 6.1875 13.375 5 15 C4.54625 13.9275 4.0925 12.855 3.625 11.75 C2.75710463 9.70571563 1.87324429 7.76650265 0.8125 5.8125 C0 4 0 4 0 0 Z " fill="#E15E6C" transform="translate(30,56)"/>
<path d="M0 0 C0.66 0 1.32 0 2 0 C1.5547115 5.27315333 0.91626837 10.01770224 -1 15 C-1.33 15 -1.66 15 -2 15 C-2.22577402 9.5814234 -1.46670113 5.22512279 0 0 Z " fill="#E16774" transform="translate(63,64)"/>
<path d="M0 0 C2.475 0.99 2.475 0.99 5 2 C5 2.66 5 3.32 5 4 C2.36 4.33 -0.28 4.66 -3 5 C-1.125 1.125 -1.125 1.125 0 0 Z " fill="#46B967" transform="translate(148,86)"/>
<path d="M0 0 C0.99 0.33 1.98 0.66 3 1 C3.3125 3.25 3.3125 3.25 3 6 C0.5 8.3125 0.5 8.3125 -2 10 C-1.34 6.7 -0.68 3.4 0 0 Z " fill="#0D3373" transform="translate(96,60)"/>
<path d="M0 0 C0.33 1.98 0.66 3.96 1 6 C0.01 6.495 0.01 6.495 -1 7 C-1.99 6.34 -2.98 5.68 -4 5 C-4 4.34 -4 3.68 -4 3 C-4.66 2.67 -5.32 2.34 -6 2 C-3 0 -3 0 0 0 Z " fill="#A50610" transform="translate(34,80)"/>
<path d="M0 0 C0.66 0 1.32 0 2 0 C2 1.98 2 3.96 2 6 C2.99 6.33 3.98 6.66 5 7 C5 7.33 5 7.66 5 8 C3.35 8 1.7 8 0 8 C-1.125 2.25 -1.125 2.25 0 0 Z " fill="#293950" transform="translate(140,76)"/>
<path d="M0 0 C0.66 0 1.32 0 2 0 C1.67 1.32 1.34 2.64 1 4 C2.32 4.66 3.64 5.32 5 6 C3.02 6.66 1.04 7.32 -1 8 C-1.33 6.02 -1.66 4.04 -2 2 C-1.34 2 -0.68 2 0 2 C0 1.34 0 0.68 0 0 Z " fill="#30B455" transform="translate(146,95)"/>
<path d="M0 0 C2 3.75 2 3.75 2 6 C-0.31 6.33 -2.62 6.66 -5 7 C-5 5 -5 5 -2.5 2.375 C-1.675 1.59125 -0.85 0.8075 0 0 Z " fill="#D53A4D" transform="translate(42,64)"/>
<path d="M0 0 C1.32 0.66 2.64 1.32 4 2 C3.071875 2.598125 2.14375 3.19625 1.1875 3.8125 C-1.20254718 5.45272845 -3.08470253 6.8718917 -5 9 C-5.125 6.625 -5.125 6.625 -5 4 C-4.34 3.34 -3.68 2.68 -3 2 C-2.01 2 -1.02 2 0 2 C0 1.34 0 0.68 0 0 Z " fill="#52AD6D" transform="translate(130,64)"/>
<path d="M0 0 C0.99 0.495 0.99 0.495 2 1 C2.4140625 3.06640625 2.4140625 3.06640625 2.625 5.5625 C2.69976562 6.38878906 2.77453125 7.21507813 2.8515625 8.06640625 C2.92503906 9.02353516 2.92503906 9.02353516 3 10 C2.01 9.67 1.02 9.34 0 9 C0 6.03 0 3.06 0 0 Z " fill="#1C8238" transform="translate(123,89)"/>
<path d="M0 0 C1.32 1.32 2.64 2.64 4 4 C3.25 5.9375 3.25 5.9375 2 8 C-0.125 8.75 -0.125 8.75 -2 9 C-2 8.34 -2 7.68 -2 7 C-1.01 7 -0.02 7 1 7 C0.67 4.69 0.34 2.38 0 0 Z " fill="#66C281" transform="translate(154,59)"/>
<path d="M0 0 C1.98 0.495 1.98 0.495 4 1 C3.01 1.495 3.01 1.495 2 2 C1.34444881 4.52733235 1.34444881 4.52733235 1 7 C0.34 6.34 -0.32 5.68 -1 5 C-0.625 2.375 -0.625 2.375 0 0 Z " fill="#D1010E" transform="translate(20,54)"/>
<path d="M0 0 C1.98 0.99 1.98 0.99 4 2 C3.67 3.32 3.34 4.64 3 6 C2.01 6 1.02 6 0 6 C0 4.02 0 2.04 0 0 Z " fill="#3DB65E" transform="translate(151,93)"/>
<path d="M0 0 C3 1 3 1 5 3 C5.33 2.34 5.66 1.68 6 1 C5.67 2.65 5.34 4.3 5 6 C3.0625 5.25 3.0625 5.25 1 4 C0.25 1.875 0.25 1.875 0 0 Z " fill="#67C07F" transform="translate(115,90)"/>
<path d="M0 0 C1.98 0.66 3.96 1.32 6 2 C5.34 3.32 4.68 4.64 4 6 C2.62437146 4.71034824 1.29233607 3.37310707 0 2 C0 1.34 0 0.68 0 0 Z " fill="#B14E56" transform="translate(32,88)"/>
<path d="M0 0 C0.99 0.33 1.98 0.66 3 1 C3 2.98 3 4.96 3 7 C2.34 7 1.68 7 1 7 C0.67 4.69 0.34 2.38 0 0 Z " fill="#2EA551" transform="translate(113,83)"/>
<path d="M0 0 C0.66 1.32 1.32 2.64 2 4 C0.68 5.32 -0.64 6.64 -2 8 C-2.33 7.34 -2.66 6.68 -3 6 C-2.06553465 3.96855359 -1.06775224 1.96466413 0 0 Z " fill="#4D5E7F" transform="translate(73,72)"/>
<path d="M0 0 C0.66 0 1.32 0 2 0 C2.66 1.98 3.32 3.96 4 6 C1.525 5.01 1.525 5.01 -1 4 C-0.67 2.68 -0.34 1.36 0 0 Z " fill="#586D8D" transform="translate(97,56)"/>
<path d="M0 0 C1.32 0 2.64 0 4 0 C3.67 0.99 3.34 1.98 3 3 C2.34 3 1.68 3 1 3 C0.67 3.99 0.34 4.98 0 6 C0 5.01 0 4.02 0 3 C-0.66 2.67 -1.32 2.34 -2 2 C-1.34 1.34 -0.68 0.68 0 0 Z " fill="#546475" transform="translate(142,73)"/>
<path d="" fill="#FFFFFF" transform="translate(0,0)"/>
<path d="" fill="#FFFFFF" transform="translate(0,0)"/>
<path d="" fill="#FFFFFF" transform="translate(0,0)"/>
<path d="" fill="#FFFFFF" transform="translate(0,0)"/>
<path d="" fill="#FFFFFF" transform="translate(0,0)"/>
<path d="" fill="#FFFFFF" transform="translate(0,0)"/>
<path d="" fill="#FFFFFF" transform="translate(0,0)"/>
<path d="" fill="#FFFFFF" transform="translate(0,0)"/>
<path d="" fill="#FFFFFF" transform="translate(0,0)"/>
<path d="" fill="#FFFFFF" transform="translate(0,0)"/>
<path d="" fill="#FFFFFF" transform="translate(0,0)"/>
<path d="" fill="#FFFFFF" transform="translate(0,0)"/>
<path d="" fill="#FFFFFF" transform="translate(0,0)"/>
<path d="" fill="#FFFFFF" transform="translate(0,0)"/>
<path d="" fill="#FFFFFF" transform="translate(0,0)"/>
<path d="" fill="#FFFFFF" transform="translate(0,0)"/>
<path d="" fill="#FFFFFF" transform="translate(0,0)"/>
<path d="" fill="#FFFFFF" transform="translate(0,0)"/>
<path d="" fill="#FFFFFF" transform="translate(0,0)"/>
<path d="" fill="#FFFFFF" transform="translate(0,0)"/>
<path d="" fill="#FFFFFF" transform="translate(0,0)"/>
<path d="" fill="#FFFFFF" transform="translate(0,0)"/>
<path d="" fill="#FFFFFF" transform="translate(0,0)"/>
<path d="" fill="#FFFFFF" transform="translate(0,0)"/>
<path d="" fill="#FFFFFF" transform="translate(0,0)"/>
<path d="" fill="#FFFFFF" transform="translate(0,0)"/>
<path d="" fill="#FFFFFF" transform="translate(0,0)"/>
<path d="" fill="#FFFFFF" transform="translate(0,0)"/>
<path d="" fill="#FFFFFF" transform="translate(0,0)"/>
<path d="" fill="#FFFFFF" transform="translate(0,0)"/>
<path d="" fill="#FFFFFF" transform="translate(0,0)"/>
<path d="" fill="#FFFFFF" transform="translate(0,0)"/>
<path d="" fill="#FFFFFE" transform="translate(0,0)"/>
<path d="" fill="#FFFFFF" transform="translate(0,0)"/>
<path d="" fill="#FFFFFF" transform="translate(0,0)"/>
<path d="" fill="#FFFFFF" transform="translate(0,0)"/>
<path d="" fill="#FFFFFF" transform="translate(0,0)"/>
<path d="" fill="#FFFFFF" transform="translate(0,0)"/>
<path d="" fill="#FFFFFF" transform="translate(0,0)"/>
<path d="" fill="#FFFFFF" transform="translate(0,0)"/>
<path d="" fill="#FFFFFF" transform="translate(0,0)"/>
<path d="" fill="#FFFFFF" transform="translate(0,0)"/>
<path d="" fill="#FFFFFF" transform="translate(0,0)"/>
<path d="" fill="#FFFFFF" transform="translate(0,0)"/>
<path d="" fill="#FFFFFF" transform="translate(0,0)"/>
<path d="" fill="#FFFFFF" transform="translate(0,0)"/>
<path d="" fill="#FFFFFF" transform="translate(0,0)"/>
<path d="" fill="#FFFFFF" transform="translate(0,0)"/>
<path d="" fill="#FFFFFF" transform="translate(0,0)"/>
<path d="" fill="#FFFFFF" transform="translate(0,0)"/>
<path d="" fill="#FFFFFF" transform="translate(0,0)"/>
<path d="" fill="#FFFFFF" transform="translate(0,0)"/>
<path d="" fill="#FFFFFF" transform="translate(0,0)"/>
<path d="" fill="#FFFFFF" transform="translate(0,0)"/>
<path d="" fill="#FFFFFF" transform="translate(0,0)"/>
<path d="" fill="#FFFFFF" transform="translate(0,0)"/>
<path d="" fill="#FFFFFF" transform="translate(0,0)"/>
<path d="" fill="#FFFFFF" transform="translate(0,0)"/>
<path d="" fill="#FFFFFF" transform="translate(0,0)"/>
<path d="" fill="#FFFFFF" transform="translate(0,0)"/>
<path d="" fill="#FFFFFF" transform="translate(0,0)"/>
<path d="" fill="#FFFFFF" transform="translate(0,0)"/>
<path d="" fill="#FFFFFF" transform="translate(0,0)"/>
<path d="" fill="#FFFFFF" transform="translate(0,0)"/>
<path d="" fill="#FFFFFF" transform="translate(0,0)"/>
<path d="" fill="#FFFFFF" transform="translate(0,0)"/>
<path d="" fill="#FFFFFF" transform="translate(0,0)"/>
</svg>
