<?xml version="1.0" encoding="UTF-8"?>
<svg version="1.1" xmlns="http://www.w3.org/2000/svg" width="165" height="150">
<path d="M0 0 C54.45 0 108.9 0 165 0 C165 49.5 165 99 165 150 C110.55 150 56.1 150 0 150 C0 100.5 0 51 0 0 Z " fill="#03193F" transform="translate(0,0)"/>
<path d="M0 0 C54.45 0 108.9 0 165 0 C165 26.07 165 52.14 165 79 C162.69 78.01 160.38 77.02 158 76 C155.22191046 76.16341703 154.08691106 76.93792067 151.8125 78.5625 C147.83441664 80.59574261 144.38135388 80.82536068 140 80 C136.63818965 78.26923747 134.52498233 75.90678766 132.625 72.625 C131.51998251 67.98392654 131.53114249 64.32842962 133.125 59.8125 C135.40822912 56.38765631 137.31826784 54.84086608 141 53 C145.38690219 52.36190514 147.98513375 52.79203181 151.6875 55.0625 C154.66775769 57.21667976 154.66775769 57.21667976 157.125 56.875 C158.053125 56.441875 158.053125 56.441875 159 56 C159.9075 55.649375 160.815 55.29875 161.75 54.9375 C162.4925 54.628125 163.235 54.31875 164 54 C162.17064006 48.75583483 159.61627818 46.34533227 154.79296875 43.921875 C147.76751763 41.60298484 139.7894476 41.6552644 133.0625 44.875 C127.59819815 48.44977691 122.96896716 54.2424355 121.328125 60.60546875 C120.53261676 66.41078481 120.99359038 70.76257429 123.24609375 76.10546875 C125.23302179 81.09852626 124.69390894 83.81863148 123 89 C121.10448978 89.05441656 119.2085208 89.09298035 117.3125 89.125 C116.25675781 89.14820312 115.20101562 89.17140625 114.11328125 89.1953125 C110.87597185 88.99221906 108.78298681 88.67480648 106 87 C105.67 85.35 105.34 83.7 105 82 C100.05 82.33 95.1 82.66 90 83 C89.34 84.65 88.68 86.3 88 88 C83.05 88 78.1 88 73 88 C73.33 86.35 73.66 84.7 74 83 C73.34 83 72.68 83 72 83 C71.52332149 76.03238003 73.2940875 69.67285878 74.9375 62.9375 C75.48986276 60.63449332 76.0406957 58.33111908 76.58984375 56.02734375 C76.83597412 55.01406006 77.08210449 54.00077637 77.33569336 52.95678711 C78.00379013 49.98313035 78.52736484 47.01035258 79 44 C74.04802471 43.02406326 69.9150065 42.72758715 65 44 C60.23508817 48.02527575 57.10843065 53.67126175 54 59 C50.2466247 55.44271618 48.18437877 51.12669275 45.71875 46.6171875 C44.20575905 43.72448167 44.20575905 43.72448167 41 43 C40.74605469 44.11117187 40.49210937 45.22234375 40.23046875 46.3671875 C34.99822079 69.07856543 34.99822079 69.07856543 32.4765625 71.40625 C30.39741083 73.65041371 30.34467301 75.62852289 29.9375 78.625 C29.52734375 81.6015625 29.52734375 81.6015625 29 84 C28.01 84.495 28.01 84.495 27 85 C26.505 84.01 26.505 84.01 26 83 C25.67 85.31 25.34 87.62 25 90 C24.67 90 24.34 90 24 90 C23.85900879 89.27409668 23.71801758 88.54819336 23.57275391 87.80029297 C22.92760166 84.49104766 22.27635966 81.18302886 21.625 77.875 C21.29242187 76.16183594 21.29242187 76.16183594 20.953125 74.4140625 C20.73398437 73.30546875 20.51484375 72.196875 20.2890625 71.0546875 C20.09006348 70.03874512 19.89106445 69.02280273 19.68603516 67.97607422 C18.97742984 64.90208889 18.04349741 61.97532534 17 59 C16.67 59 16.34 59 16 59 C15.67 55.37 15.34 51.74 15 48 C11.7 48.99 8.4 49.98 5 51 C4.67 54.3 4.34 57.6 4 61 C4.66 61 5.32 61 6 61 C5.67 61.66 5.34 62.32 5 63 C2.525 63.495 2.525 63.495 0 64 C0 42.88 0 21.76 0 0 Z " fill="#072354" transform="translate(0,0)"/>
<path d="M0 0 C1.734375 0.05859375 1.734375 0.05859375 4 1 C5.5899933 3.34727113 6.93501737 5.57133847 8.25 8.0625 C8.61351563 8.72572266 8.97703125 9.38894531 9.3515625 10.07226562 C10.24616748 11.70845105 11.12466067 13.35342724 12 15 C15.25318632 12.02383173 17.17617733 8.9832052 19.375 5.1875 C21.4296875 2.2421875 21.4296875 2.2421875 24 0 C28.87668688 -0.66071242 33.21378278 -0.04194336 38 1 C37.59073328 10.71317572 35.30017104 19.81080768 32.9375 29.1875 C32.55590142 30.72703051 32.17503661 32.26674308 31.79492188 33.80664062 C30.87171722 37.53991086 29.93865282 41.2705853 29 45 C25.04 45 21.08 45 17 45 C16.54489193 38.32508169 18.2327574 32.40625443 20 26 C19.37351562 26.86625 18.74703125 27.7325 18.1015625 28.625 C17.27638032 29.75024843 16.45084098 30.87523499 15.625 32 C15.2125 32.57234375 14.8 33.1446875 14.375 33.734375 C13.29828281 35.19315312 12.15333422 36.60100976 11 38 C10.34 38 9.68 38 9 38 C7.68 35.36 6.36 32.72 5 30 C2.85220365 35.62518091 0.87729439 41.27872186 -1 47 C-4.63 47 -8.26 47 -12 47 C-11.42020252 39.89748082 -9.55852643 33.21746387 -7.65625 26.37646484 C-6.90510843 23.65637107 -6.17068829 20.93201806 -5.4375 18.20703125 C-4.89597553 16.20048245 -4.35430937 14.19397189 -3.8125 12.1875 C-3.55057861 11.21409668 -3.28865723 10.24069336 -3.01879883 9.23779297 C-2.77154053 8.32787598 -2.52428223 7.41795898 -2.26953125 6.48046875 C-2.04885986 5.66473389 -1.82818848 4.84899902 -1.60083008 4.00854492 C-1 2 -1 2 0 0 Z " fill="#E2021B" transform="translate(41,43)"/>
<path d="M0 0 C4.29 0 8.58 0 13 0 C12.0443848 2.58436814 11.08562111 5.16749301 10.125 7.75 C9.85558594 8.47960938 9.58617188 9.20921875 9.30859375 9.9609375 C5.72592038 19.57298801 5.72592038 19.57298801 2.875 21.25 C2.25625 21.4975 1.6375 21.745 1 22 C1.350625 22.763125 1.70125 23.52625 2.0625 24.3125 C3 27 3 27 2 30 C2.7425 29.62875 3.485 29.2575 4.25 28.875 C7 28 7 28 9.3125 28.875 C9.869375 29.24625 10.42625 29.6175 11 30 C10.95875 29.05125 10.9175 28.1025 10.875 27.125 C11 24 11 24 13 22 C11.68 21.67 10.36 21.34 9 21 C7.59338744 15.71113679 8.51990028 12.96019944 10.9375 8.125 C11.50339844 6.97257812 12.06929687 5.82015625 12.65234375 4.6328125 C13.09707031 3.76398437 13.54179688 2.89515625 14 2 C17 3 17 3 18.17919922 5.29394531 C18.55061035 6.29522461 18.92202148 7.29650391 19.3046875 8.328125 C19.72363281 9.43929687 20.14257812 10.55046875 20.57421875 11.6953125 C21.00347656 12.86835937 21.43273437 14.04140625 21.875 15.25 C22.50728516 16.93996094 22.50728516 16.93996094 23.15234375 18.6640625 C24.00632658 20.94657318 24.85493374 23.23110211 25.69824219 25.51757812 C27.43079141 30.15243974 29.25353604 34.75067155 31.08642578 39.34667969 C32 42 32 42 32 45 C30.10448978 45.05441656 28.2085208 45.09298035 26.3125 45.125 C25.25675781 45.14820313 24.20101562 45.17140625 23.11328125 45.1953125 C19.87597185 44.99221906 17.78298681 44.67480648 15 43 C14.67 41.35 14.34 39.7 14 38 C9.05 38.33 4.1 38.66 -1 39 C-1.99 41.475 -1.99 41.475 -3 44 C-7.95 44 -12.9 44 -18 44 C-17.30611406 40.5305703 -16.7854364 38.16941392 -15.43359375 35.06762695 C-14.95805054 33.96672478 -14.95805054 33.96672478 -14.47290039 32.84358215 C-14.13121826 32.06633286 -13.78953613 31.28908356 -13.4375 30.48828125 C-13.0861499 29.67884567 -12.7347998 28.8694101 -12.37280273 28.03544617 C-11.2531189 25.45910725 -10.12659544 22.88582293 -9 20.3125 C-8.24174976 18.56985186 -7.48393242 16.82701529 -6.7265625 15.08398438 C-1.25762341 2.51524683 -1.25762341 2.51524683 0 0 Z " fill="#F2F3F5" transform="translate(91,44)"/>
<path d="M0 0 C2.97006449 1.83996347 4.95290027 3.77924626 6.8125 6.75 C6.8125 7.74 6.8125 8.73 6.8125 9.75 C1.88273411 13.78344482 1.88273411 13.78344482 -1.1875 13.6875 C-2.82430209 12.92024902 -4.41978206 12.06539886 -6 11.1875 C-9.73204184 9.50442231 -12.13382534 9.2995917 -16.1875 9.75 C-18.47234306 11.14957197 -18.47234306 11.14957197 -20.1875 12.75 C-20.8475 12.75 -21.5075 12.75 -22.1875 12.75 C-24.42926663 18.49452698 -25.18977234 23.14409192 -22.9375 29 C-20.68273888 32.58544907 -20.68273888 32.58544907 -17.1875 34.75 C-10.75602514 35.74417837 -7.5044699 34.49604697 -2.1875 30.75 C1.80525814 30.84738434 4.52113609 32.58710372 7.8125 34.75 C6.66497985 39.62696062 3.82959309 41.59627025 -0.01953125 44.41796875 C-5.90565179 48.03448605 -11.39633327 48.57649097 -18.1875 47.75 C-22.09825925 45.76031547 -23.76439098 44.38466354 -26.1875 40.75 C-26.72666146 38.0897977 -26.92120098 35.45737337 -27.1875 32.75 C-27.8475 35.06 -28.5075 37.37 -29.1875 39.75 C-34.54695619 34.94497031 -36.97417067 29.51881815 -37.375 22.4375 C-36.95059632 14.09089431 -33.92773465 8.65581834 -28.1875 2.75 C-20.38499722 -3.92237837 -9.0569957 -4.75750835 0 0 Z " fill="#05A834" transform="translate(157.1875,44.25)"/>
<path d="M0 0 C1.859375 0.94140625 1.859375 0.94140625 3.6875 2.0625 C6.68559251 4.22510108 6.68559251 4.22510108 9.25 3.875 C11.26615787 2.91214206 11.26615787 2.91214206 14 1 C14.99 1 15.98 1 17 1 C17 9.25 17 17.5 17 26 C14.69 25.01 12.38 24.02 10 23 C7.22191046 23.16341703 6.08691106 23.93792067 3.8125 25.5625 C-0.16558336 27.59574261 -3.61864612 27.82536068 -8 27 C-11.36181035 25.26923747 -13.47501767 22.90678766 -15.375 19.625 C-16.48001749 14.98392654 -16.46885751 11.32842962 -14.875 6.8125 C-11.05631789 1.08447684 -6.81413236 -0.95636945 0 0 Z " fill="#082856" transform="translate(148,53)"/>
<path d="M0 0 C2.4072669 0.37530268 3.66446544 0.60937482 5.28027344 2.49047852 C5.63637695 3.11365967 5.99248047 3.73684082 6.359375 4.37890625 C6.75253906 5.05244141 7.14570312 5.72597656 7.55078125 6.41992188 C7.94652344 7.12697266 8.34226562 7.83402344 8.75 8.5625 C9.16121094 9.27341797 9.57242188 9.98433594 9.99609375 10.71679688 C11.00878358 12.47134088 12.00590921 14.23485161 13 16 C11.88407791 18.00507927 10.75701288 20.00396096 9.625 22 C8.68527344 23.670625 8.68527344 23.670625 7.7265625 25.375 C7.15679687 26.24125 6.58703125 27.1075 6 28 C5.34 28 4.68 28 4 28 C3.89042969 28.61746094 3.78085937 29.23492187 3.66796875 29.87109375 C2.55888288 35.79523532 1.01545527 41.32008061 -1 47 C-4.63 47 -8.26 47 -12 47 C-11.42020252 39.89748082 -9.55852643 33.21746387 -7.65625 26.37646484 C-6.90510843 23.65637107 -6.17068829 20.93201806 -5.4375 18.20703125 C-4.89597553 16.20048245 -4.35430937 14.19397189 -3.8125 12.1875 C-3.55057861 11.21409668 -3.28865723 10.24069336 -3.01879883 9.23779297 C-2.77154053 8.32787598 -2.52428223 7.41795898 -2.26953125 6.48046875 C-2.04885986 5.66473389 -1.82818848 4.84899902 -1.60083008 4.00854492 C-1 2 -1 2 0 0 Z " fill="#E10118" transform="translate(41,43)"/>
<path d="M0 0 C2.77714562 3.35872689 5.1883562 6.76771076 7.4609375 10.484375 C8.09773437 11.50144531 8.73453125 12.51851562 9.390625 13.56640625 C10.71839318 15.69658552 12.0334505 17.83473818 13.3359375 19.98046875 C13.9753125 20.99238281 14.6146875 22.00429687 15.2734375 23.046875 C16.13074463 24.43664551 16.13074463 24.43664551 17.00537109 25.85449219 C19.59338333 28.63826838 21.25803851 28.81818341 25 29 C27.78325403 28.49319016 30.4042093 27.91594898 33.125 27.1875 C34.65168565 26.80595078 36.17903522 26.42704844 37.70703125 26.05078125 C38.44646973 25.86725098 39.1859082 25.6837207 39.94775391 25.49462891 C44.59592793 24.37433381 49.26434126 23.63596376 54 23 C55.28132813 22.814375 56.56265625 22.62875 57.8828125 22.4375 C84.6293107 18.96161386 133.55517568 14.37011712 157 30 C151.82820423 29.52315712 146.67716718 28.97660485 141.5324707 28.26147461 C125.70662224 26.09797501 110.14883238 25.48174189 94.1875 25.5625 C92.96452209 25.56454437 91.74154419 25.56658875 90.48150635 25.56869507 C72.66914237 25.61716072 55.46582696 26.24483006 38 30 C36.47269105 30.31136868 34.94534988 30.62257937 33.41796875 30.93359375 C31.12714096 31.41868292 28.84070756 31.92691914 26.56640625 32.484375 C21.76348039 33.44934641 21.76348039 33.44934641 19 33 C16.08427525 29.98168494 13.95992331 26.49376009 11.75 22.9375 C8.50743617 17.7395506 5.05110882 12.72091602 1.50390625 7.7265625 C-0.09667534 4.82472886 -0.33715708 3.25327011 0 0 Z " fill="#CDD1DA" transform="translate(0,76)"/>
<path d="M0 0 C2.73715262 13.99158076 5.42174973 27.98348436 7.74316406 42.05102539 C7.97084473 43.40442017 7.97084473 43.40442017 8.203125 44.78515625 C8.33364258 45.57801025 8.46416016 46.37086426 8.59863281 47.18774414 C8.83221513 49.01137418 8.83221513 49.01137418 10 50 C17.63832743 49.82609762 25.2398811 48.5886624 32.7734375 47.40234375 C35.88832239 47.0139259 38.86501903 46.92896569 42 47 C37.32792834 49.57597488 32.45263318 50.20084805 27.25 51.125 C26.28578125 51.30675781 25.3215625 51.48851562 24.328125 51.67578125 C18.8168307 52.67170807 13.59812015 53.48952172 8 53 C5.37970904 50.9518877 4.32215325 48.82182518 3.16796875 45.74609375 C2.84715332 44.89982422 2.52633789 44.05355469 2.19580078 43.18164062 C1.86306152 42.27607422 1.53032227 41.37050781 1.1875 40.4375 C0.83929199 39.50744141 0.49108398 38.57738281 0.13232422 37.61914062 C-2.68201099 30.03345653 -5.2794609 22.38363638 -7.7734375 14.6875 C-8.50723369 12.48143756 -9.28985775 10.28941227 -10.16796875 8.13671875 C-11 6 -11 6 -10.9375 3.8125 C-10 2 -10 2 -7.75 0.75 C-5.01240462 0.00338308 -2.81703322 -0.05671879 0 0 Z " fill="#E10117" transform="translate(15,48)"/>
<path d="M0 0 C0.66 0.99 1.32 1.98 2 3 C3.64646685 4.68662458 5.31183067 6.35511706 7 8 C7.33 8.33 7.66 8.66 8 9 C14.42052366 9.82453041 17.68856195 8.74214954 23 5 C26.99275814 5.09738434 29.70863609 6.83710372 33 9 C31.85247985 13.87696062 29.01709309 15.84627025 25.16796875 18.66796875 C19.28184821 22.28448605 13.79116673 22.82649097 7 22 C3.08924075 20.01031547 1.42310902 18.63466354 -1 15 C-2.10446698 9.74487487 -2.73611743 4.82844252 0 0 Z " fill="#039933" transform="translate(132,70)"/>
<path d="M0 0 C3.87664022 0.534709 6.37131986 1.33087991 9.625 3.5 C10.625 5.4375 10.625 5.4375 10.625 7.5 C9.6875 9.75 9.6875 9.75 8.625 11.5 C9.140625 11.9125 9.65625 12.325 10.1875 12.75 C11.625 14.5 11.625 14.5 11.4375 16.5625 C10.625 18.5 10.625 18.5 8.625 20.5 C6.61779077 20.21325582 4.6164056 19.88133299 2.625 19.5 C2.295 19.83 1.965 20.16 1.625 20.5 C-1.04558851 20.64115161 -3.69932238 20.54247107 -6.375 20.5 C-5.79937172 17.16135596 -4.78436384 15.80897368 -2.375 13.5 C-2.045 12.51 -1.715 11.52 -1.375 10.5 C-3.025 10.83 -4.675 11.16 -6.375 11.5 C-7.41568369 7.77088344 -7.69713295 6.11742148 -5.875 2.625 C-3.375 0.5 -3.375 0.5 0 0 Z " fill="#11315D" transform="translate(144.375,52.5)"/>
<path d="M0 0 C0.99 0.33 1.98 0.66 3 1 C3.9921875 3.30078125 3.9921875 3.30078125 4.875 6.3125 C6.87256213 12.73052282 9.35422298 18.82652028 12 25 C12.91935724 27.18637058 13.83608649 29.37384833 14.75 31.5625 C15.15734375 32.53316406 15.5646875 33.50382812 15.984375 34.50390625 C16.71980338 36.31136292 17.38292995 38.14878984 18 40 C18.66 40.33 19.32 40.66 20 41 C17.37890625 41.03515625 17.37890625 41.03515625 14 40 C11.57013905 37.40984376 9.790155 34.45673001 7.9375 31.4375 C7.43412109 30.65052734 6.93074219 29.86355469 6.41210938 29.05273438 C5.40885444 27.47841583 4.41766766 25.89633876 3.43896484 24.30664062 C2.50030465 22.80198139 1.53279628 21.31483011 0.53369141 19.84960938 C-2.27493739 15.6761048 -3.66011529 12.81540408 -3.5 7.625 C-3.4896875 6.60664062 -3.479375 5.58828125 -3.46875 4.5390625 C-3.3140625 3.70117188 -3.159375 2.86328125 -3 2 C-2.01 1.34 -1.02 0.68 0 0 Z " fill="#02942F" transform="translate(3,62)"/>
<path d="M0 0 C2.77714562 3.35872689 5.1883562 6.76771076 7.4609375 10.484375 C8.09773437 11.50144531 8.73453125 12.51851562 9.390625 13.56640625 C10.71839318 15.69658552 12.0334505 17.83473818 13.3359375 19.98046875 C13.9753125 20.99238281 14.6146875 22.00429687 15.2734375 23.046875 C16.13074463 24.43664551 16.13074463 24.43664551 17.00537109 25.85449219 C19.59338333 28.63826838 21.25803851 28.81818341 25 29 C27.78320816 28.49319852 30.40410891 27.91536215 33.125 27.1875 C34.65176663 26.80886318 36.1791151 26.43256493 37.70703125 26.05859375 C38.44646973 25.87538574 39.1859082 25.69217773 39.94775391 25.50341797 C51.31970613 22.713867 62.36359062 22.79302829 74 23 C71.27824318 25.72175682 68.52261217 25.70734937 64.859375 26.18359375 C64.1407428 26.28462906 63.4221106 26.38566437 62.68170166 26.48976135 C60.3721537 26.81361269 58.06130003 27.12641906 55.75 27.4375 C52.74387269 27.84645964 49.73867674 28.26142894 46.734375 28.68359375 C45.99723267 28.78674896 45.26009033 28.88990417 44.50061035 28.9961853 C38.56593016 29.8549451 32.76457687 31.05529478 26.92675781 32.43383789 C24.15483829 32.97004755 21.80888895 33.27563292 19 33 C16.08427525 29.98168494 13.95992331 26.49376009 11.75 22.9375 C8.50743617 17.7395506 5.05110882 12.72091602 1.50390625 7.7265625 C-0.09667534 4.82472886 -0.33715708 3.25327011 0 0 Z " fill="#DCDEE3" transform="translate(0,76)"/>
<path d="M0 0 C0.33 0 0.66 0 1 0 C1.33 9.24 1.66 18.48 2 28 C2.99 27.67 3.98 27.34 5 27 C3.125 34.625 3.125 34.625 2 38 C-1.63 38 -5.26 38 -9 38 C-8.41138144 30.78942262 -6.4932589 24.00027483 -4.56591797 17.05371094 C-3.60398534 13.56286655 -2.67897908 10.06222825 -1.75 6.5625 C-1.16666667 4.375 -0.58333333 2.1875 0 0 Z " fill="#C70113" transform="translate(38,52)"/>
<path d="M0 0 C0.11069824 0.69561035 0.22139648 1.3912207 0.33544922 2.10791016 C0.84343926 5.28112996 1.35914645 8.45304944 1.875 11.625 C2.04902344 12.71941406 2.22304688 13.81382813 2.40234375 14.94140625 C3.25033516 20.12357597 4.08439291 25.08154936 6 30 C13.65558923 29.46719342 21.19210181 28.59618627 28.7734375 27.40234375 C31.88832239 27.0139259 34.86501903 26.92896569 38 27 C33.32792834 29.57597488 28.45263318 30.20084805 23.25 31.125 C22.28578125 31.30675781 21.3215625 31.48851563 20.328125 31.67578125 C14.8168307 32.67170807 9.59812015 33.48952172 4 33 C-0.19876879 29.75152992 -1.47002229 24.47404261 -3.3125 19.6875 C-3.69728516 18.74970703 -4.08207031 17.81191406 -4.47851562 16.84570312 C-7.16946268 9.89041374 -7.16946268 9.89041374 -6.32421875 5.44921875 C-3.37799043 0 -3.37799043 0 0 0 Z " fill="#C20318" transform="translate(19,68)"/>
<path d="M0 0 C0.66 0 1.32 0 2 0 C5.14235968 8.27933774 8.21931181 16.57184707 11.125 24.9375 C13.92951833 34.66258786 13.92951833 34.66258786 19 43 C23.75093317 43.1792805 28.33189314 42.89510895 33.0625 42.4375 C37.62500377 42.02114985 41.52070469 42.0837805 46 43 C46 43.33 46 43.66 46 44 C44.865625 44.19335938 43.73125 44.38671875 42.5625 44.5859375 C41.04163968 44.84880225 39.52080786 45.11183192 38 45.375 C37.25621094 45.50132813 36.51242188 45.62765625 35.74609375 45.7578125 C32.00046711 46.40922583 28.33128835 47.1469656 24.65625 48.125 C20.94618461 49.0128789 18.66346749 48.91586687 15 48 C14.505 46.515 14.505 46.515 14 45 C14.99 45 15.98 45 17 45 C16.62488281 44.29617187 16.24976562 43.59234375 15.86328125 42.8671875 C12.3927377 36.17087425 9.60423934 29.47519935 7.16796875 22.33984375 C5.8406826 18.54442682 4.31331657 14.86475756 2.69921875 11.18359375 C1.90098386 8.690782 1.87654589 6.601681 2 4 C1.34 4 0.68 4 0 4 C0 2.68 0 1.36 0 0 Z " fill="#192234" transform="translate(4,57)"/>
<path d="M0 0 C7.68395543 -0.2137731 14.56340812 -0.01670288 22 2 C22 2.33 22 2.66 22 3 C16.06 3 10.12 3 4 3 C4.3609375 5.866875 4.721875 8.73375 5.09375 11.6875 C5.44241727 14.48406804 5.78940313 17.28083997 6.13623047 20.07763672 C6.37698791 22.01177533 6.61947534 23.94569945 6.86376953 25.87939453 C7.21588875 28.6690411 7.56164853 31.45941601 7.90625 34.25 C8.0156189 35.10553467 8.12498779 35.96106934 8.2376709 36.8425293 C8.85956114 41.93827539 9.10350368 46.86621769 9 52 C8.67 52 8.34 52 8 52 C5.50332144 39.99816241 3.0276991 27.99784718 1.1875 15.875 C1.0639917 15.07803711 0.9404834 14.28107422 0.81323242 13.45996094 C0.15101777 8.92211439 -0.11554997 4.58550925 0 0 Z " fill="#D1D4DC" transform="translate(16,38)"/>
<path d="M0 0 C2.52958606 2.52958606 2.61862558 4.17073329 3.2890625 7.6640625 C3.50820313 8.78554687 3.72734375 9.90703125 3.953125 11.0625 C4.17484375 12.238125 4.3965625 13.41375 4.625 14.625 C4.85445312 15.80835937 5.08390625 16.99171875 5.3203125 18.2109375 C5.88710575 21.1393693 6.44668234 24.06899732 7 27 C7.99 26.01 8.98 25.02 10 24 C10.33 24.66 10.66 25.32 11 26 C11.10957031 25.15695313 11.21914063 24.31390625 11.33203125 23.4453125 C11.49058594 22.34960938 11.64914063 21.25390625 11.8125 20.125 C11.96332031 19.03445312 12.11414062 17.94390625 12.26953125 16.8203125 C13 14 13 14 16 12 C14.9413873 18.75710231 13.77874156 25.39324562 12 32 C15.63 32 19.26 32 23 32 C23 32.33 23 32.66 23 33 C22.31292969 33.04898438 21.62585938 33.09796875 20.91796875 33.1484375 C20.01691406 33.22320312 19.11585937 33.29796875 18.1875 33.375 C16.84751953 33.47941406 16.84751953 33.47941406 15.48046875 33.5859375 C12.75601501 33.86645036 12.75601501 33.86645036 10 36 C10.99 36.99 11.98 37.98 13 39 C10.69 38.34 8.38 37.68 6 37 C4.0711032 29.38017362 2.54799511 21.75902887 1.3125 14 C1.18125732 13.18748779 1.05001465 12.37497559 0.91479492 11.5378418 C0.3135097 7.65549918 -0.16692985 3.942724 0 0 Z " fill="#22193B" transform="translate(17,58)"/>
<path d="M0 0 C0.99 0.66 1.98 1.32 3 2 C2.34 2 1.68 2 1 2 C0.80664062 2.60328125 0.61328125 3.2065625 0.4140625 3.828125 C0.15367188 4.62734375 -0.10671875 5.4265625 -0.375 6.25 C-0.63023438 7.03890625 -0.88546875 7.8278125 -1.1484375 8.640625 C-2 11 -2 11 -3.09375 13.09375 C-4.35935367 15.75588187 -4.1319816 18.09640484 -4 21 C-2.35 21 -0.7 21 1 21 C0.34 21.99 -0.32 22.98 -1 24 C-1.39013716 25.9896995 -1.73202649 27.99019869 -2 30 C-2.7425 29.814375 -3.485 29.62875 -4.25 29.4375 C-6.94990963 29.00796892 -8.44631077 29.14877026 -11 30 C-10.95875 29.2575 -10.9175 28.515 -10.875 27.75 C-11.00398134 24.91241048 -11.57051222 23.41226062 -13 21 C-11.35 20.67 -9.7 20.34 -8 20 C-7.608125 18.741875 -7.21625 17.48375 -6.8125 16.1875 C-4.96115906 10.59787448 -2.51454474 5.31731793 0 0 Z " fill="#122A57" transform="translate(104,44)"/>
<path d="M0 0 C1.13732426 3.40401948 0.83989957 5.77456664 0.0625 9.25 C-0.13214844 10.14203125 -0.32679687 11.0340625 -0.52734375 11.953125 C-0.68332031 12.62859375 -0.83929688 13.3040625 -1 14 C-1.99 14 -2.98 14 -4 14 C-5.79642705 15.79351549 -7.43111591 17.56703545 -9.0625 19.5 C-10.66866984 21.38661219 -12.29471807 23.19819267 -14 25 C-14.66 25 -15.32 25 -16 25 C-15.48495279 20.38146189 -13.647124 17.81031091 -10.8125 14.1875 C-10.00554687 13.14464844 -9.19859375 12.10179687 -8.3671875 11.02734375 C-7.19542969 9.52880859 -7.19542969 9.52880859 -6 8 C-4.80825839 6.41985677 -3.62001512 4.83705976 -2.4375 3.25 C-1.625 2.16666667 -0.8125 1.08333333 0 0 Z " fill="#CB0016" transform="translate(78,46)"/>
<path d="M0 0 C3 1 3 1 3.94921875 2.890625 C6.56713838 11.25688668 6.56713838 11.25688668 6 15 C5.34 15.66 4.68 16.32 4 17 C3.01 17 2.02 17 1 17 C-2.54406048 11.68390928 -3.76065248 8.41121373 -3 2 C-2.01 1.34 -1.02 0.68 0 0 Z " fill="#02A230" transform="translate(3,62)"/>
<path d="M0 0 C0 0.33 0 0.66 0 1 C-1.134375 1.19335938 -2.26875 1.38671875 -3.4375 1.5859375 C-4.95836032 1.84880225 -6.47919214 2.11183192 -8 2.375 C-8.74378906 2.50132813 -9.48757812 2.62765625 -10.25390625 2.7578125 C-13.99953289 3.40922583 -17.66871165 4.1469656 -21.34375 5.125 C-25.05381539 6.0128789 -27.33653251 5.91586687 -31 5 C-31.33 4.01 -31.66 3.02 -32 2 C-31.38253906 1.95101562 -30.76507812 1.90203125 -30.12890625 1.8515625 C-25.86088754 1.47478155 -21.82330734 1.01273139 -17.6875 -0.125 C-11.80610314 -1.56361506 -5.94840303 -0.68034285 0 0 Z " fill="#182031" transform="translate(50,100)"/>
<path d="M0 0 C0 0.33 0 0.66 0 1 C-4.455 1.495 -4.455 1.495 -9 2 C0.57 2.33 10.14 2.66 20 3 C20 3.33 20 3.66 20 4 C7.46 4 -5.08 4 -18 4 C-18 3.67 -18 3.34 -18 3 C-20.31 2.67 -22.62 2.34 -25 2 C-25 1.67 -25 1.34 -25 1 C-16.65667456 -0.19190363 -8.40676978 -0.09283549 0 0 Z " fill="#9CA4B3" transform="translate(90,97)"/>
<path d="M0 0 C0.99 0.33 1.98 0.66 3 1 C3 1.99 3 2.98 3 4 C3.66 4.66 4.32 5.32 5 6 C4.63318342 8.93453261 4.13562754 9.86437246 2 12 C-0.625 11.625 -0.625 11.625 -3 11 C-3.75 7.75 -3.75 7.75 -4 4 C-2.0625 1.5625 -2.0625 1.5625 0 0 Z " fill="#CED2DC" transform="translate(151,61)"/>
<path d="M0 0 C1.04940487 3.14821462 0.98606526 3.9349491 0.22265625 7.01171875 C0.03896484 7.76904297 -0.14472656 8.52636719 -0.33398438 9.30664062 C-0.53314453 10.09232422 -0.73230469 10.87800781 -0.9375 11.6875 C-1.13279297 12.48478516 -1.32808594 13.28207031 -1.52929688 14.10351562 C-2.01228382 16.07080389 -2.5051963 18.03565054 -3 20 C0.63 20 4.26 20 8 20 C8 20.33 8 20.66 8 21 C7.32453125 21.06058594 6.6490625 21.12117188 5.953125 21.18359375 C4.61507812 21.30927734 4.61507812 21.30927734 3.25 21.4375 C2.36828125 21.51871094 1.4865625 21.59992188 0.578125 21.68359375 C-2.2620811 21.97871177 -2.2620811 21.97871177 -6 23 C-6.33 19.7 -6.66 16.4 -7 13 C-6.34 12.67 -5.68 12.34 -5 12 C-4.67 12.66 -4.34 13.32 -4 14 C-3.87882812 13.15695313 -3.75765625 12.31390625 -3.6328125 11.4453125 C-3.46523438 10.34960938 -3.29765625 9.25390625 -3.125 8.125 C-2.96257813 7.03445312 -2.80015625 5.94390625 -2.6328125 4.8203125 C-2 2 -2 2 0 0 Z " fill="#231432" transform="translate(32,70)"/>
<path d="M0 0 C4.1955855 5.12161486 7.73690467 10.56135923 11.3125 16.125 C11.97056641 17.12660156 12.62863281 18.12820312 13.30664062 19.16015625 C14.23186523 20.60068359 14.23186523 20.60068359 15.17578125 22.0703125 C15.74208252 22.94445801 16.30838379 23.81860352 16.8918457 24.71923828 C18 27 18 27 17 30 C15.10217617 27.16799539 13.20711663 24.33415102 11.3125 21.5 C10.78205078 20.70851563 10.25160156 19.91703125 9.70507812 19.1015625 C8.12764986 16.74025883 6.56314388 14.3707765 5 12 C4.25242432 10.89205078 4.25242432 10.89205078 3.48974609 9.76171875 C3.03293457 9.06691406 2.57612305 8.37210938 2.10546875 7.65625 C1.49481567 6.74069336 1.49481567 6.74069336 0.87182617 5.80664062 C0 4 0 4 0 0 Z " fill="#1A2F3E" transform="translate(0,72)"/>
<path d="M0 0 C1.62183309 2.43274963 2.57812952 4.2523847 3.5625 6.9375 C3.81128906 7.60652344 4.06007813 8.27554688 4.31640625 8.96484375 C4.54199219 9.63644531 4.76757812 10.30804688 5 11 C5.25652344 11.66128906 5.51304688 12.32257813 5.77734375 13.00390625 C6 15 6 15 3 19 C1.02 13.72 -0.96 8.44 -3 3 C-2.01 2.01 -1.02 1.02 0 0 Z " fill="#0F2F54" transform="translate(119,67)"/>
<path d="M0 0 C1.65 0 3.3 0 5 0 C5.625 2.3125 5.625 2.3125 6 5 C5.01 6.485 5.01 6.485 4 8 C4.66 8.33 5.32 8.66 6 9 C6 9.99 6 10.98 6 12 C3.36 12 0.72 12 -2 12 C-1.42437172 8.66135596 -0.40936384 7.30897368 2 5 C2.33 4.01 2.66 3.02 3 2 C1.68 2.33 0.36 2.66 -1 3 C-0.67 2.01 -0.34 1.02 0 0 Z " fill="#D1D5E0" transform="translate(140,61)"/>
<path d="M0 0 C0.33 0 0.66 0 1 0 C1.50766936 4.16576916 2.00474723 8.33273792 2.5 12.5 C2.64308594 13.67304687 2.78617188 14.84609375 2.93359375 16.0546875 C3.64467172 22.08191981 4.18026954 27.93092562 4 34 C3.67 34 3.34 34 3 34 C2.13167552 29.9195446 1.28280772 25.8352803 0.4375 21.75 C0.19064453 20.59113281 -0.05621094 19.43226562 -0.31054688 18.23828125 C-0.53935547 17.12324219 -0.76816406 16.00820312 -1.00390625 14.859375 C-1.21861572 13.83295898 -1.4333252 12.80654297 -1.65454102 11.74902344 C-1.99228034 9.06142993 -1.83825335 7.53360106 -1 5 C-0.65939189 3.33480481 -0.32441604 1.66842534 0 0 Z " fill="#AFB4C0" transform="translate(21,56)"/>
<path d="M0 0 C3.39524985 4.08540577 6.33366458 8.38289169 9.25 12.8125 C9.93835938 13.85180664 9.93835938 13.85180664 10.640625 14.91210938 C11.76254025 16.60666887 12.88156672 18.30314034 14 20 C13.01 20.66 12.02 21.32 11 22 C10.55346069 21.28082397 10.55346069 21.28082397 10.09790039 20.54711914 C8.75416593 18.38470639 7.40836126 16.22358963 6.0625 14.0625 C5.35963867 12.93038086 5.35963867 12.93038086 4.64257812 11.77539062 C4.19462891 11.05673828 3.74667969 10.33808594 3.28515625 9.59765625 C2.66459351 8.60004272 2.66459351 8.60004272 2.03149414 7.58227539 C1.09387816 6.02514658 1.09387816 6.02514658 0 5 C-0.04063832 3.33382885 -0.042721 1.66611905 0 0 Z " fill="#E2E3E7" transform="translate(0,76)"/>
<path d="M0 0 C-1 1 -1 1 -3.13305664 1.11352539 C-4.04949951 1.10828857 -4.96594238 1.10305176 -5.91015625 1.09765625 C-6.89951172 1.09443359 -7.88886719 1.09121094 -8.90820312 1.08789062 C-9.94912109 1.07951172 -10.99003906 1.07113281 -12.0625 1.0625 C-13.10728516 1.05798828 -14.15207031 1.05347656 -15.22851562 1.04882812 C-17.8190666 1.03699913 -20.40950559 1.02051689 -23 1 C-22.67 0.34 -22.34 -0.32 -22 -1 C-15.17905108 -2.61388524 -6.21097516 -3.53118363 0 0 Z " fill="#EBECEF" transform="translate(103,99)"/>
<path d="M0 0 C0 0.66 0 1.32 0 2 C-6.02596573 3.0712828 -11.88909517 3.09945415 -18 3 C-18.33 2.34 -18.66 1.68 -19 1 C-12.31349436 -0.48725585 -6.76106962 -1.27567351 0 0 Z " fill="#0F1C39" transform="translate(61,97)"/>
<path d="M0 0 C0.99 0.66 1.98 1.32 3 2 C2.34 2 1.68 2 1 2 C0.81824219 2.556875 0.63648437 3.11375 0.44921875 3.6875 C-1.24862185 8.84196991 -3.06422235 13.93010615 -5 19 C-5.66 19 -6.32 19 -7 19 C-7.33 20.65 -7.66 22.3 -8 24 C-8.33 23.01 -8.66 22.02 -9 21 C-9.66 20.67 -10.32 20.34 -11 20 C-10.01 20 -9.02 20 -8 20 C-7.608125 18.741875 -7.21625 17.48375 -6.8125 16.1875 C-4.96115906 10.59787448 -2.51454474 5.31731793 0 0 Z " fill="#37476D" transform="translate(104,44)"/>
<path d="M0 0 C7.68395543 -0.2137731 14.56340812 -0.01670288 22 2 C22 2.33 22 2.66 22 3 C16.06 3 10.12 3 4 3 C4 2.34 4 1.68 4 1 C2.68 0.67 1.36 0.34 0 0 Z " fill="#BEC3CF" transform="translate(16,38)"/>
<path d="M0 0 C0 0.33 0 0.66 0 1 C-8.36948823 0.25166929 -16.6769795 -0.85697185 -25 -2 C-25 -2.33 -25 -2.66 -25 -3 C-16.22735938 -4.97384414 -8.40991826 -2.45804596 0 0 Z " fill="#A6ACBE" transform="translate(157,105)"/>
<path d="M0 0 C1.76227952 2.64341928 3.19871008 5.23077235 4.625 8.0625 C5.07101563 8.94035156 5.51703125 9.81820312 5.9765625 10.72265625 C7 13 7 13 7 15 C7.66 15.33 8.32 15.66 9 16 C6.75 16 6.75 16 4 15 C1.68776427 11.60770678 0.29202196 7.87606589 -1 4 C-0.5625 1.8125 -0.5625 1.8125 0 0 Z " fill="#047430" transform="translate(14,87)"/>
<path d="M0 0 C1.31223496 3.93670488 0.24296256 6.12488144 -1 10 C-1.66 9.34 -2.32 8.68 -3 8 C-5.97 10.475 -5.97 10.475 -9 13 C-7.50923566 9.7173068 -5.61379679 7.06922559 -3.375 4.25 C-2.74335937 3.45078125 -2.11171875 2.6515625 -1.4609375 1.828125 C-0.97882812 1.22484375 -0.49671875 0.6215625 0 0 Z " fill="#2B1335" transform="translate(61,68)"/>
<path d="M0 0 C0.33 0.99 0.66 1.98 1 3 C2.32 3 3.64 3 5 3 C5 4.98 5 6.96 5 9 C3.35 8.67 1.7 8.34 0 8 C-0.38063221 5.6739143 -0.71269945 3.33944736 -1 1 C-0.67 0.67 -0.34 0.34 0 0 Z " fill="#A2A9BA" transform="translate(148,64)"/>
<path d="M0 0 C0.99 1.32 1.98 2.64 3 4 C0.69 7.3 -1.62 10.6 -4 14 C-4.33 12.68 -4.66 11.36 -5 10 C-3.7260411 7.96166576 -2.38938077 5.96147874 -1 4 C-0.23060319 1.77397385 -0.23060319 1.77397385 0 0 Z " fill="#C90116" transform="translate(51,56)"/>
<path d="M0 0 C1.73695124 2.60542686 2.66574402 4.67590624 3.75 7.5625 C5.28826831 11.15179272 5.57187968 11.79417292 9.25 13.5625 C10.61125 13.7790625 10.61125 13.7790625 12 14 C12 14.33 12 14.66 12 15 C9.69 15 7.38 15 5 15 C-0.74031891 5.77448747 -0.74031891 5.77448747 0 0 Z " fill="#2B1A25" transform="translate(16,87)"/>
<path d="M0 0 C0.66 0 1.32 0 2 0 C2.86343824 2.12124966 3.71550648 4.24713072 4.5625 6.375 C5.27599609 8.15003906 5.27599609 8.15003906 6.00390625 9.9609375 C7 13 7 13 6 15 C3.17438373 11.20307814 1.43361092 8.81430721 2 4 C1.34 4 0.68 4 0 4 C0 2.68 0 1.36 0 0 Z " fill="#291A36" transform="translate(4,57)"/>
<path d="M0 0 C3.3 0 6.6 0 10 0 C10.33 0.66 10.66 1.32 11 2 C7.32589215 3.17571451 3.83070817 3.07366746 0 3 C0 2.01 0 1.02 0 0 Z " fill="#E3E5E8" transform="translate(37,102)"/>
<path d="M0 0 C2.31 0.33 4.62 0.66 7 1 C7 1.99 7 2.98 7 4 C4.36 4 1.72 4 -1 4 C-0.67 2.68 -0.34 1.36 0 0 Z " fill="#B6BECC" transform="translate(139,69)"/>
<path d="M0 0 C0.33 0.66 0.66 1.32 1 2 C-1.64 2.33 -4.28 2.66 -7 3 C-7 2.34 -7 1.68 -7 1 C-7.66 0.67 -8.32 0.34 -9 0 C-5.67032582 -0.83241855 -3.24733335 -1.2757381 0 0 Z " fill="#D2D5DA" transform="translate(37,104)"/>
<path d="M0 0 C2.64 0.33 5.28 0.66 8 1 C8 1.99 8 2.98 8 4 C6.02 4 4.04 4 2 4 C1.34 2.68 0.68 1.36 0 0 Z " fill="#131128" transform="translate(23,95)"/>
<path d="M0 0 C2.95749791 3.46741134 5.07848152 6.86873527 7 11 C3.17131081 9.54773858 1.7461047 7.66681987 0 4 C0 2.68 0 1.36 0 0 Z " fill="#0F293D" transform="translate(0,72)"/>
<path d="M0 0 C1.32 0 2.64 0 4 0 C3.67 3.63 3.34 7.26 3 11 C2.67 11 2.34 11 2 11 C2 8.69 2 6.38 2 4 C1.34 4 0.68 4 0 4 C0 2.68 0 1.36 0 0 Z " fill="#F5F6F7" transform="translate(16,39)"/>
<path d="M0 0 C0.33 0 0.66 0 1 0 C1.103125 0.763125 1.20625 1.52625 1.3125 2.3125 C2.04364039 5.17059424 2.76951913 6.15742885 5 8 C2.69 7.34 0.38 6.68 -2 6 C-1.125 1.125 -1.125 1.125 0 0 Z " fill="#273451" transform="translate(25,89)"/>
<path d="M0 0 C2.475 0.99 2.475 0.99 5 2 C4.34 3.98 3.68 5.96 3 8 C0.37613513 4.93882432 0 4.26826873 0 0 Z " fill="#1B3660" transform="translate(120,78)"/>
<path d="M0 0 C0 0.66 0 1.32 0 2 C-2.64 2 -5.28 2 -8 2 C-8.33 1.34 -8.66 0.68 -9 0 C-5.62182575 -0.84454356 -3.32534757 -1.10844919 0 0 Z " fill="#181731" transform="translate(51,98)"/>
<path d="M0 0 C0.66 0 1.32 0 2 0 C3.32 2.31 4.64 4.62 6 7 C5.01 7.33 4.02 7.66 3 8 C1.02 4.535 1.02 4.535 -1 1 C-0.67 0.67 -0.34 0.34 0 0 Z " fill="#D0D1D9" transform="translate(8,90)"/>
<path d="M0 0 C0.33 0 0.66 0 1 0 C1 2.64 1 5.28 1 8 C0.01 8 -0.98 8 -2 8 C-1.125 1.125 -1.125 1.125 0 0 Z " fill="#023441" transform="translate(130,76)"/>
<path d="M0 0 C1.3079635 2.15429283 2.05130331 3.45276464 1.8125 6 C0.86632381 8.32904908 -0.40941599 10.06363686 -2 12 C-1.44687265 7.97007218 -0.8441938 3.97977076 0 0 Z " fill="#211A44" transform="translate(77,55)"/>
<path d="M0 0 C0 0.66 0 1.32 0 2 C-2.64 2.33 -5.28 2.66 -8 3 C-8 2.34 -8 1.68 -8 1 C-5.07175348 0.02391783 -3.04386724 -0.08226668 0 0 Z " fill="#EBECEF" transform="translate(30,105)"/>
<path d="M0 0 C2.64 0.33 5.28 0.66 8 1 C7.67 1.99 7.34 2.98 7 4 C4.03 3.505 4.03 3.505 1 3 C0.67 2.01 0.34 1.02 0 0 Z " fill="#27333E" transform="translate(18,102)"/>
<path d="M0 0 C0.78890625 0.12761719 1.5778125 0.25523438 2.390625 0.38671875 C3.18984375 0.50660156 3.9890625 0.62648438 4.8125 0.75 C5.41578125 0.85699219 6.0190625 0.96398437 6.640625 1.07421875 C6.640625 1.40421875 6.640625 1.73421875 6.640625 2.07421875 C0.205625 2.56921875 0.205625 2.56921875 -6.359375 3.07421875 C-2.359375 0.07421875 -2.359375 0.07421875 0 0 Z " fill="#2E364D" transform="translate(43.359375,98.92578125)"/>
<path d="M0 0 C0.33 0.66 0.66 1.32 1 2 C1.66 2 2.32 2 3 2 C2.67 3.65 2.34 5.3 2 7 C1.01 7 0.02 7 -1 7 C-0.67 4.69 -0.34 2.38 0 0 Z " fill="#211C3C" transform="translate(71,81)"/>
<path d="M0 0 C3.875 4.75 3.875 4.75 5 7 C4.01 7.33 3.02 7.66 2 8 C-0.1519437 4.77208445 -0.20086443 3.71599191 0 0 Z " fill="#CED1D8" transform="translate(0,76)"/>
<path d="M0 0 C0.66 0 1.32 0 2 0 C2.33 2.64 2.66 5.28 3 8 C2.01 7.67 1.02 7.34 0 7 C0 4.69 0 2.38 0 0 Z " fill="#353153" transform="translate(16,52)"/>
<path d="M0 0 C1.10844919 3.32534757 0.84454356 5.62182575 0 9 C-0.33 8.01 -0.66 7.02 -1 6 C-1.66 6 -2.32 6 -3 6 C-1.125 1.125 -1.125 1.125 0 0 Z " fill="#B80219" transform="translate(78,46)"/>
</svg>
